<?xml version="1.0" encoding="utf-8"?>
<svg height="253" width="392" xmlns="http://www.w3.org/2000/svg">
<g transform="rotate(90 0 0) translate(0 -392)">
<svg color-interpolation="auto" color-rendering="auto" fill="black" fill-opacity="1" font-family="'Dialog'" font-size="12px" font-style="normal" font-weight="normal" height="392" image-rendering="auto" shape-rendering="auto" stroke="black" stroke-dasharray="none" stroke-dashoffset="0" stroke-linecap="square" stroke-linejoin="miter" stroke-miterlimit="10" stroke-opacity="1" stroke-width="1" text-rendering="auto" width="253" xmlns="http://www.w3.org/2000/svg" xmlns:xlink="http://www.w3.org/1999/xlink">
<!--Generated by ySVG 2.6-->
<defs id="genericDefs"/>
<g>
<defs id="defs1">
<clipPath clipPathUnits="userSpaceOnUse" id="clipPath1">
<path d="M0 0 L253 0 L253 392 L0 392 L0 0 Z"/>
</clipPath>
<clipPath clipPathUnits="userSpaceOnUse" id="clipPath2">
<path d="M-38 -30 L215 -30 L215 362 L-38 362 L-38 -30 Z"/>
</clipPath>
<clipPath clipPathUnits="userSpaceOnUse" id="clipPath3">
<path d="M254.9766 -15.8672 L254.9766 237.1328 L-137.0234 237.1328 L-137.0234 -15.8672 L254.9766 -15.8672 Z"/>
</clipPath>
<clipPath clipPathUnits="userSpaceOnUse" id="clipPath4">
<path d="M321.4902 -85.8672 L321.4902 167.1328 L-70.5098 167.1328 L-70.5098 -85.8672 L321.4902 -85.8672 Z"/>
</clipPath>
<clipPath clipPathUnits="userSpaceOnUse" id="clipPath5">
<path d="M326.5879 -118.9336 L326.5879 134.0664 L-65.4121 134.0664 L-65.4121 -118.9336 L326.5879 -118.9336 Z"/>
</clipPath>
<clipPath clipPathUnits="userSpaceOnUse" id="clipPath6">
<path d="M326.5879 -128.9336 L326.5879 124.0664 L-65.4121 124.0664 L-65.4121 -128.9336 L326.5879 -128.9336 Z"/>
</clipPath>
<clipPath clipPathUnits="userSpaceOnUse" id="clipPath7">
<path d="M326.5879 -138.9336 L326.5879 114.0664 L-65.4121 114.0664 L-65.4121 -138.9336 L326.5879 -138.9336 Z"/>
</clipPath>
<clipPath clipPathUnits="userSpaceOnUse" id="clipPath8">
<path d="M129.9072 -30.8672 L129.9072 222.1328 L-262.0928 222.1328 L-262.0928 -30.8672 L129.9072 -30.8672 Z"/>
</clipPath>
<clipPath clipPathUnits="userSpaceOnUse" id="clipPath9">
<path d="M80.7939 -63.9336 L80.7939 189.0664 L-311.2061 189.0664 L-311.2061 -63.9336 L80.7939 -63.9336 Z"/>
</clipPath>
<clipPath clipPathUnits="userSpaceOnUse" id="clipPath10">
<path d="M80.7939 -73.9336 L80.7939 179.0664 L-311.2061 179.0664 L-311.2061 -73.9336 L80.7939 -73.9336 Z"/>
</clipPath>
<clipPath clipPathUnits="userSpaceOnUse" id="clipPath11">
<path d="M80.7939 -83.9336 L80.7939 169.0664 L-311.2061 169.0664 L-311.2061 -83.9336 L80.7939 -83.9336 Z"/>
</clipPath>
<clipPath clipPathUnits="userSpaceOnUse" id="clipPath12">
<path d="M129.9072 -140.8672 L129.9072 112.1328 L-262.0928 112.1328 L-262.0928 -140.8672 L129.9072 -140.8672 Z"/>
</clipPath>
<clipPath clipPathUnits="userSpaceOnUse" id="clipPath13">
<path d="M80.7939 -173.9336 L80.7939 79.0664 L-311.2061 79.0664 L-311.2061 -173.9336 L80.7939 -173.9336 Z"/>
</clipPath>
<clipPath clipPathUnits="userSpaceOnUse" id="clipPath14">
<path d="M80.7939 -183.9336 L80.7939 69.0664 L-311.2061 69.0664 L-311.2061 -183.9336 L80.7939 -183.9336 Z"/>
</clipPath>
<clipPath clipPathUnits="userSpaceOnUse" id="clipPath15">
<path d="M80.7939 -193.9336 L80.7939 59.0664 L-311.2061 59.0664 L-311.2061 -193.9336 L80.7939 -193.9336 Z"/>
</clipPath>
<clipPath clipPathUnits="userSpaceOnUse" id="clipPath16">
<path d="M228.6602 -85.8672 L228.6602 167.1328 L-163.3398 167.1328 L-163.3398 -85.8672 L228.6602 -85.8672 Z"/>
</clipPath>
<clipPath clipPathUnits="userSpaceOnUse" id="clipPath17">
<path d="M176.0879 -97.6836 L176.0879 155.3164 L-215.9121 155.3164 L-215.9121 -97.6836 L176.0879 -97.6836 Z"/>
</clipPath>
<clipPath clipPathUnits="userSpaceOnUse" id="clipPath18">
<path d="M156.2939 -160.1836 L156.2939 92.8164 L-235.7061 92.8164 L-235.7061 -160.1836 L156.2939 -160.1836 Z"/>
</clipPath>
<clipPath clipPathUnits="userSpaceOnUse" id="clipPath19">
<path d="M259.0879 -128.9336 L259.0879 124.0664 L-132.9121 124.0664 L-132.9121 -128.9336 L259.0879 -128.9336 Z"/>
</clipPath>
</defs>
<g fill="white" shape-rendering="geometricPrecision" stroke="white" text-rendering="geometricPrecision" transform="translate(38,30)">
<rect clip-path="url(#clipPath2)" height="392" stroke="none" width="253" x="-38" y="-30"/>
</g>
<g fill="rgb(204,204,255)" shape-rendering="geometricPrecision" stroke="rgb(204,204,255)" text-rendering="geometricPrecision" transform="matrix(1,0,0,1,38,30)">
<rect clip-path="url(#clipPath2)" height="362" stroke="none" width="200" x="0" y="-15"/>
</g>
<g font-family="sans-serif" shape-rendering="geometricPrecision" stroke-linecap="butt" stroke-miterlimit="1.45" text-rendering="geometricPrecision" transform="matrix(-0,-1,1,-0,15.8672,254.9766)">
<text clip-path="url(#clipPath3)" stroke="none" x="2" xml:space="preserve" y="13.6016">NetworkTopModule</text>
</g>
<g shape-rendering="geometricPrecision" stroke-linecap="butt" stroke-miterlimit="1.45" text-rendering="geometricPrecision" transform="matrix(1,0,0,1,38,30)">
<rect clip-path="url(#clipPath2)" fill="none" height="362" width="200" x="0" y="-15"/>
</g>
<g fill="rgb(255,204,0)" shape-rendering="geometricPrecision" stroke="rgb(255,204,0)" text-rendering="geometricPrecision" transform="matrix(1,0,0,1,38,30)">
<circle clip-path="url(#clipPath2)" cx="100" cy="317" r="15" stroke="none"/>
</g>
<g shape-rendering="geometricPrecision" stroke-linecap="butt" stroke-miterlimit="1.45" text-rendering="geometricPrecision" transform="matrix(1,0,0,1,38,30)">
<circle clip-path="url(#clipPath2)" cx="100" cy="317" fill="none" r="15"/>
</g>
<g fill="rgb(255,204,0)" shape-rendering="geometricPrecision" stroke="rgb(255,204,0)" text-rendering="geometricPrecision" transform="matrix(1,0,0,1,38,30)">
<circle clip-path="url(#clipPath2)" cx="45" cy="15" r="15" stroke="none"/>
</g>
<g shape-rendering="geometricPrecision" stroke-linecap="butt" stroke-miterlimit="1.45" text-rendering="geometricPrecision" transform="matrix(1,0,0,1,38,30)">
<circle clip-path="url(#clipPath2)" cx="45" cy="15" fill="none" r="15"/>
</g>
<g fill="rgb(255,204,0)" shape-rendering="geometricPrecision" stroke="rgb(255,204,0)" text-rendering="geometricPrecision" transform="matrix(1,0,0,1,38,30)">
<circle clip-path="url(#clipPath2)" cx="155" cy="15" r="15" stroke="none"/>
</g>
<g shape-rendering="geometricPrecision" stroke-linecap="butt" stroke-miterlimit="1.45" text-rendering="geometricPrecision" transform="matrix(1,0,0,1,38,30)">
<circle clip-path="url(#clipPath2)" cx="155" cy="15" fill="none" r="15"/>
</g>
<g fill="rgb(204,204,255)" shape-rendering="geometricPrecision" stroke="rgb(204,204,255)" text-rendering="geometricPrecision" transform="matrix(1,0,0,1,38,30)">
<rect clip-path="url(#clipPath2)" height="60" stroke="none" width="60" x="70" y="227"/>
</g>
<g font-family="sans-serif" shape-rendering="geometricPrecision" stroke-linecap="butt" stroke-miterlimit="1.45" text-rendering="geometricPrecision" transform="matrix(-0,-1,1,-0,85.8672,321.4902)">
<text clip-path="url(#clipPath4)" stroke="none" x="2" xml:space="preserve" y="13.6016">broadcast1</text>
</g>
<g shape-rendering="geometricPrecision" stroke-linecap="butt" stroke-miterlimit="1.45" text-rendering="geometricPrecision" transform="matrix(1,0,0,1,38,30)">
<rect clip-path="url(#clipPath2)" fill="none" height="60" width="60" x="70" y="227"/>
</g>
<g fill="rgb(255,204,0)" shape-rendering="geometricPrecision" stroke="rgb(255,204,0)" text-rendering="geometricPrecision" transform="matrix(1,0,0,1,38,30)">
<circle clip-path="url(#clipPath2)" cx="100" cy="257" r="15" stroke="none"/>
</g>
<g shape-rendering="geometricPrecision" stroke-linecap="butt" stroke-miterlimit="1.45" text-rendering="geometricPrecision" transform="matrix(1,0,0,1,38,30)">
<circle clip-path="url(#clipPath2)" cx="100" cy="257" fill="none" r="15"/>
<path clip-path="url(#clipPath2)" d="M90 268.1931 L90 297.807" fill="none"/>
<path clip-path="url(#clipPath2)" d="M90 305.807 L95 293.807 L90 296.807 L85 293.807 Z" stroke="none"/>
</g>
<g font-family="sans-serif" shape-rendering="geometricPrecision" stroke-linecap="butt" stroke-miterlimit="1.45" text-rendering="geometricPrecision" transform="matrix(-0,-1,1,-0,118.9336,326.5879)">
<text clip-path="url(#clipPath5)" stroke="none" x="2" xml:space="preserve" y="13.6016">16</text>
</g>
<g shape-rendering="geometricPrecision" stroke-linecap="butt" stroke-miterlimit="1.45" text-rendering="geometricPrecision" transform="matrix(1,0,0,1,38,30)">
<path clip-path="url(#clipPath2)" d="M100 272 L100 294" fill="none"/>
<path clip-path="url(#clipPath2)" d="M100 302 L105 290 L100 293 L95 290 Z" stroke="none"/>
</g>
<g font-family="sans-serif" shape-rendering="geometricPrecision" stroke-linecap="butt" stroke-miterlimit="1.45" text-rendering="geometricPrecision" transform="matrix(-0,-1,1,-0,128.9336,326.5879)">
<text clip-path="url(#clipPath6)" stroke="none" x="2" xml:space="preserve" y="13.6016">16</text>
</g>
<g shape-rendering="geometricPrecision" stroke-linecap="butt" stroke-miterlimit="1.45" text-rendering="geometricPrecision" transform="matrix(1,0,0,1,38,30)">
<path clip-path="url(#clipPath2)" d="M110 268.1931 L110 297.807" fill="none"/>
<path clip-path="url(#clipPath2)" d="M110 305.807 L115 293.807 L110 296.807 L105 293.807 Z" stroke="none"/>
</g>
<g font-family="sans-serif" shape-rendering="geometricPrecision" stroke-linecap="butt" stroke-miterlimit="1.45" text-rendering="geometricPrecision" transform="matrix(-0,-1,1,-0,138.9336,326.5879)">
<text clip-path="url(#clipPath7)" stroke="none" x="2" xml:space="preserve" y="13.6016">16</text>
</g>
<g fill="rgb(204,204,255)" shape-rendering="geometricPrecision" stroke="rgb(204,204,255)" text-rendering="geometricPrecision" transform="matrix(1,0,0,1,38,30)">
<rect clip-path="url(#clipPath2)" height="60" stroke="none" width="60" x="15" y="45"/>
</g>
<g font-family="sans-serif" shape-rendering="geometricPrecision" stroke-linecap="butt" stroke-miterlimit="1.45" text-rendering="geometricPrecision" transform="matrix(-0,-1,1,-0,30.8672,129.9072)">
<text clip-path="url(#clipPath8)" stroke="none" x="2" xml:space="preserve" y="13.6016">concat2</text>
</g>
<g shape-rendering="geometricPrecision" stroke-linecap="butt" stroke-miterlimit="1.45" text-rendering="geometricPrecision" transform="matrix(1,0,0,1,38,30)">
<rect clip-path="url(#clipPath2)" fill="none" height="60" width="60" x="15" y="45"/>
</g>
<g fill="rgb(255,204,0)" shape-rendering="geometricPrecision" stroke="rgb(255,204,0)" text-rendering="geometricPrecision" transform="matrix(1,0,0,1,38,30)">
<circle clip-path="url(#clipPath2)" cx="45" cy="75" r="15" stroke="none"/>
</g>
<g shape-rendering="geometricPrecision" stroke-linecap="butt" stroke-miterlimit="1.45" text-rendering="geometricPrecision" transform="matrix(1,0,0,1,38,30)">
<circle clip-path="url(#clipPath2)" cx="45" cy="75" fill="none" r="15"/>
<path clip-path="url(#clipPath2)" d="M35 26.1931 L35 55.807" fill="none"/>
<path clip-path="url(#clipPath2)" d="M35 63.807 L40 51.807 L35 54.807 L30 51.807 Z" stroke="none"/>
</g>
<g font-family="sans-serif" shape-rendering="geometricPrecision" stroke-linecap="butt" stroke-miterlimit="1.45" text-rendering="geometricPrecision" transform="matrix(-0,-1,1,-0,63.9336,80.7939)">
<text clip-path="url(#clipPath9)" stroke="none" x="2" xml:space="preserve" y="13.6016">4</text>
</g>
<g shape-rendering="geometricPrecision" stroke-linecap="butt" stroke-miterlimit="1.45" text-rendering="geometricPrecision" transform="matrix(1,0,0,1,38,30)">
<path clip-path="url(#clipPath2)" d="M45 30 L45 52" fill="none"/>
<path clip-path="url(#clipPath2)" d="M45 60 L50 48 L45 51 L40 48 Z" stroke="none"/>
</g>
<g font-family="sans-serif" shape-rendering="geometricPrecision" stroke-linecap="butt" stroke-miterlimit="1.45" text-rendering="geometricPrecision" transform="matrix(-0,-1,1,-0,73.9336,80.7939)">
<text clip-path="url(#clipPath10)" stroke="none" x="2" xml:space="preserve" y="13.6016">5</text>
</g>
<g shape-rendering="geometricPrecision" stroke-linecap="butt" stroke-miterlimit="1.45" text-rendering="geometricPrecision" transform="matrix(1,0,0,1,38,30)">
<path clip-path="url(#clipPath2)" d="M55 26.1931 L55 55.807" fill="none"/>
<path clip-path="url(#clipPath2)" d="M55 63.807 L60 51.807 L55 54.807 L50 51.807 Z" stroke="none"/>
</g>
<g font-family="sans-serif" shape-rendering="geometricPrecision" stroke-linecap="butt" stroke-miterlimit="1.45" text-rendering="geometricPrecision" transform="matrix(-0,-1,1,-0,83.9336,80.7939)">
<text clip-path="url(#clipPath11)" stroke="none" x="2" xml:space="preserve" y="13.6016">6</text>
</g>
<g fill="rgb(204,204,255)" shape-rendering="geometricPrecision" stroke="rgb(204,204,255)" text-rendering="geometricPrecision" transform="matrix(1,0,0,1,38,30)">
<rect clip-path="url(#clipPath2)" height="60" stroke="none" width="60" x="125" y="45"/>
</g>
<g font-family="sans-serif" shape-rendering="geometricPrecision" stroke-linecap="butt" stroke-miterlimit="1.45" text-rendering="geometricPrecision" transform="matrix(-0,-1,1,-0,140.8672,129.9072)">
<text clip-path="url(#clipPath12)" stroke="none" x="2" xml:space="preserve" y="13.6016">concat1</text>
</g>
<g shape-rendering="geometricPrecision" stroke-linecap="butt" stroke-miterlimit="1.45" text-rendering="geometricPrecision" transform="matrix(1,0,0,1,38,30)">
<rect clip-path="url(#clipPath2)" fill="none" height="60" width="60" x="125" y="45"/>
</g>
<g fill="rgb(255,204,0)" shape-rendering="geometricPrecision" stroke="rgb(255,204,0)" text-rendering="geometricPrecision" transform="matrix(1,0,0,1,38,30)">
<circle clip-path="url(#clipPath2)" cx="155" cy="75" r="15" stroke="none"/>
</g>
<g shape-rendering="geometricPrecision" stroke-linecap="butt" stroke-miterlimit="1.45" text-rendering="geometricPrecision" transform="matrix(1,0,0,1,38,30)">
<circle clip-path="url(#clipPath2)" cx="155" cy="75" fill="none" r="15"/>
<path clip-path="url(#clipPath2)" d="M145 26.1931 L145 55.807" fill="none"/>
<path clip-path="url(#clipPath2)" d="M145 63.807 L150 51.807 L145 54.807 L140 51.807 Z" stroke="none"/>
</g>
<g font-family="sans-serif" shape-rendering="geometricPrecision" stroke-linecap="butt" stroke-miterlimit="1.45" text-rendering="geometricPrecision" transform="matrix(-0,-1,1,-0,173.9336,80.7939)">
<text clip-path="url(#clipPath13)" stroke="none" x="2" xml:space="preserve" y="13.6016">1</text>
</g>
<g shape-rendering="geometricPrecision" stroke-linecap="butt" stroke-miterlimit="1.45" text-rendering="geometricPrecision" transform="matrix(1,0,0,1,38,30)">
<path clip-path="url(#clipPath2)" d="M155 30 L155 52" fill="none"/>
<path clip-path="url(#clipPath2)" d="M155 60 L160 48 L155 51 L150 48 Z" stroke="none"/>
</g>
<g font-family="sans-serif" shape-rendering="geometricPrecision" stroke-linecap="butt" stroke-miterlimit="1.45" text-rendering="geometricPrecision" transform="matrix(-0,-1,1,-0,183.9336,80.7939)">
<text clip-path="url(#clipPath14)" stroke="none" x="2" xml:space="preserve" y="13.6016">2</text>
</g>
<g shape-rendering="geometricPrecision" stroke-linecap="butt" stroke-miterlimit="1.45" text-rendering="geometricPrecision" transform="matrix(1,0,0,1,38,30)">
<path clip-path="url(#clipPath2)" d="M165 26.1931 L165 55.807" fill="none"/>
<path clip-path="url(#clipPath2)" d="M165 63.807 L170 51.807 L165 54.807 L160 51.807 Z" stroke="none"/>
</g>
<g font-family="sans-serif" shape-rendering="geometricPrecision" stroke-linecap="butt" stroke-miterlimit="1.45" text-rendering="geometricPrecision" transform="matrix(-0,-1,1,-0,193.9336,80.7939)">
<text clip-path="url(#clipPath15)" stroke="none" x="2" xml:space="preserve" y="13.6016">3</text>
</g>
<g fill="rgb(204,204,255)" shape-rendering="geometricPrecision" stroke="rgb(204,204,255)" text-rendering="geometricPrecision" transform="matrix(1,0,0,1,38,30)">
<rect clip-path="url(#clipPath2)" height="60" stroke="none" width="60" x="70" y="152"/>
</g>
<g font-family="sans-serif" shape-rendering="geometricPrecision" stroke-linecap="butt" stroke-miterlimit="1.45" text-rendering="geometricPrecision" transform="matrix(-0,-1,1,-0,85.8672,228.6602)">
<text clip-path="url(#clipPath16)" stroke="none" x="2" xml:space="preserve" y="13.6016">add1</text>
</g>
<g shape-rendering="geometricPrecision" stroke-linecap="butt" stroke-miterlimit="1.45" text-rendering="geometricPrecision" transform="matrix(1,0,0,1,38,30)">
<rect clip-path="url(#clipPath2)" fill="none" height="60" width="60" x="70" y="152"/>
</g>
<g fill="rgb(255,204,0)" shape-rendering="geometricPrecision" stroke="rgb(255,204,0)" text-rendering="geometricPrecision" transform="matrix(1,0,0,1,38,30)">
<circle clip-path="url(#clipPath2)" cx="100" cy="182" r="15" stroke="none"/>
</g>
<g shape-rendering="geometricPrecision" stroke-linecap="butt" stroke-miterlimit="1.45" text-rendering="geometricPrecision" transform="matrix(1,0,0,1,38,30)">
<circle clip-path="url(#clipPath2)" cx="100" cy="182" fill="none" r="15"/>
<path clip-path="url(#clipPath2)" d="M45 90 L45 136.5 L92.5 136.5 L92.5 160.9995" fill="none"/>
<path clip-path="url(#clipPath2)" d="M92.5 168.9995 L97.5 156.9995 L92.5 159.9995 L87.5 156.9995 Z" stroke="none"/>
</g>
<g font-family="sans-serif" shape-rendering="geometricPrecision" stroke-linecap="butt" stroke-miterlimit="1.45" text-rendering="geometricPrecision" transform="matrix(-0,-1,1,-0,97.6836,176.0879)">
<text clip-path="url(#clipPath17)" stroke="none" x="2" xml:space="preserve" y="13.6016">15</text>
</g>
<g shape-rendering="geometricPrecision" stroke-linecap="butt" stroke-miterlimit="1.45" text-rendering="geometricPrecision" transform="matrix(1,0,0,1,38,30)">
<path clip-path="url(#clipPath2)" d="M155 90 L155 120.5 L107.5 120.5 L107.5 160.9839" fill="none"/>
<path clip-path="url(#clipPath2)" d="M107.5 168.9839 L112.5 156.9839 L107.5 159.9839 L102.5 156.9839 Z" stroke="none"/>
</g>
<g font-family="sans-serif" shape-rendering="geometricPrecision" stroke-linecap="butt" stroke-miterlimit="1.45" text-rendering="geometricPrecision" transform="matrix(-0,-1,1,-0,160.1836,156.2939)">
<text clip-path="url(#clipPath18)" stroke="none" x="2" xml:space="preserve" y="13.6016">6</text>
</g>
<g shape-rendering="geometricPrecision" stroke-linecap="butt" stroke-miterlimit="1.45" text-rendering="geometricPrecision" transform="matrix(1,0,0,1,38,30)">
<path clip-path="url(#clipPath2)" d="M100 197 L100 234" fill="none"/>
<path clip-path="url(#clipPath2)" d="M100 242 L105 230 L100 233 L95 230 Z" stroke="none"/>
</g>
<g font-family="sans-serif" shape-rendering="geometricPrecision" stroke-linecap="butt" stroke-miterlimit="1.45" text-rendering="geometricPrecision" transform="matrix(-0,-1,1,-0,128.9336,259.0879)">
<text clip-path="url(#clipPath19)" stroke="none" x="2" xml:space="preserve" y="13.6016">16</text>
</g>
</g>
</svg>
</g>
</svg>
