<?xml version="1.0" encoding="UTF-8"?>
<svg xmlns="http://www.w3.org/2000/svg" height="149" width="210">
<g transform="rotate(90 0 0) translate(0 -210)">
<svg xmlns="http://www.w3.org/2000/svg" xmlns:xlink="http://www.w3.org/1999/xlink" fill-opacity="1" color-rendering="auto" color-interpolation="auto" text-rendering="auto" stroke="black" stroke-linecap="square" width="149" stroke-miterlimit="10" shape-rendering="auto" stroke-opacity="1" fill="black" stroke-dasharray="none" font-weight="normal" stroke-width="1" height="210" font-family="'Dialog'" font-style="normal" stroke-linejoin="miter" font-size="12px" stroke-dashoffset="0" image-rendering="auto">
  <!--Generated by ySVG 2.6-->
  <defs id="genericDefs"/>
  <g>
    <defs id="defs1">
      <clipPath clipPathUnits="userSpaceOnUse" id="clipPath1">
        <path d="M0 0 L149 0 L149 210 L0 210 L0 0 Z"/>
      </clipPath>
      <clipPath clipPathUnits="userSpaceOnUse" id="clipPath2">
        <path d="M-44 -30 L105 -30 L105 180 L-44 180 L-44 -30 Z"/>
      </clipPath>
      <clipPath clipPathUnits="userSpaceOnUse" id="clipPath3">
        <path d="M171.7812 -15.8672 L171.7812 133.1328 L-38.2188 133.1328 L-38.2188 -15.8672 L171.7812 -15.8672 Z"/>
      </clipPath>
      <clipPath clipPathUnits="userSpaceOnUse" id="clipPath4">
        <path d="M123.6641 -36.8672 L123.6641 112.1328 L-86.3359 112.1328 L-86.3359 -36.8672 L123.6641 -36.8672 Z"/>
      </clipPath>
    </defs>
    <g fill="white" text-rendering="geometricPrecision" shape-rendering="geometricPrecision" transform="translate(44,30)" stroke="white">
      <rect x="-44" width="149" height="210" y="-30" clip-path="url(#clipPath2)" stroke="none"/>
    </g>
    <g fill="rgb(204,204,255)" text-rendering="geometricPrecision" shape-rendering="geometricPrecision" transform="matrix(1,0,0,1,44,30)" stroke="rgb(204,204,255)">
      <rect x="-6" width="96" height="180" y="-15" clip-path="url(#clipPath2)" stroke="none"/>
    </g>
    <g text-rendering="geometricPrecision" stroke-miterlimit="1.45" shape-rendering="geometricPrecision" font-family="sans-serif" transform="matrix(-0,-1,1,-0,15.8672,171.7812)" stroke-linecap="butt">
      <text x="2" xml:space="preserve" y="13.6016" clip-path="url(#clipPath3)" stroke="none">MultiAdderTopModule</text>
    </g>
    <g text-rendering="geometricPrecision" stroke-miterlimit="1.45" shape-rendering="geometricPrecision" transform="matrix(1,0,0,1,44,30)" stroke-linecap="butt">
      <rect fill="none" x="-6" width="96" height="180" y="-15" clip-path="url(#clipPath2)"/>
    </g>
    <g fill="rgb(255,204,0)" text-rendering="geometricPrecision" shape-rendering="geometricPrecision" transform="matrix(1,0,0,1,44,30)" stroke="rgb(255,204,0)">
      <circle r="15" clip-path="url(#clipPath2)" cx="45" cy="135" stroke="none"/>
    </g>
    <g text-rendering="geometricPrecision" stroke-miterlimit="1.45" shape-rendering="geometricPrecision" transform="matrix(1,0,0,1,44,30)" stroke-linecap="butt">
      <circle fill="none" r="15" clip-path="url(#clipPath2)" cx="45" cy="135"/>
    </g>
    <g fill="rgb(255,204,0)" text-rendering="geometricPrecision" shape-rendering="geometricPrecision" transform="matrix(1,0,0,1,44,30)" stroke="rgb(255,204,0)">
      <circle r="15" clip-path="url(#clipPath2)" cx="45" cy="15" stroke="none"/>
    </g>
    <g text-rendering="geometricPrecision" stroke-miterlimit="1.45" shape-rendering="geometricPrecision" transform="matrix(1,0,0,1,44,30)" stroke-linecap="butt">
      <circle fill="none" r="15" clip-path="url(#clipPath2)" cx="45" cy="15"/>
    </g>
    <g fill="rgb(204,204,255)" text-rendering="geometricPrecision" shape-rendering="geometricPrecision" transform="matrix(1,0,0,1,44,30)" stroke="rgb(204,204,255)">
      <rect x="15" width="60" height="60" y="45" clip-path="url(#clipPath2)" stroke="none"/>
    </g>
    <g text-rendering="geometricPrecision" stroke-miterlimit="1.45" shape-rendering="geometricPrecision" font-family="sans-serif" transform="matrix(-0,-1,1,-0,36.8672,123.6641)" stroke-linecap="butt">
      <text x="2" xml:space="preserve" y="13.6016" clip-path="url(#clipPath4)" stroke="none">adder</text>
    </g>
    <g text-rendering="geometricPrecision" stroke-miterlimit="1.45" shape-rendering="geometricPrecision" transform="matrix(1,0,0,1,44,30)" stroke-linecap="butt">
      <rect fill="none" x="15" width="60" height="60" y="45" clip-path="url(#clipPath2)"/>
    </g>
    <g fill="rgb(255,204,0)" text-rendering="geometricPrecision" shape-rendering="geometricPrecision" transform="matrix(1,0,0,1,44,30)" stroke="rgb(255,204,0)">
      <circle r="15" clip-path="url(#clipPath2)" cx="45" cy="75" stroke="none"/>
    </g>
    <g text-rendering="geometricPrecision" stroke-miterlimit="1.45" shape-rendering="geometricPrecision" transform="matrix(1,0,0,1,44,30)" stroke-linecap="butt">
      <circle fill="none" r="15" clip-path="url(#clipPath2)" cx="45" cy="75"/>
      <path fill="none" d="M33 24.0098 L33 57.9902" clip-path="url(#clipPath2)"/>
      <path d="M33 65.9902 L38 53.9902 L33 56.9902 L28 53.9902 Z" clip-path="url(#clipPath2)" stroke="none"/>
      <path fill="none" d="M39 28.7505 L39 53.2495" clip-path="url(#clipPath2)"/>
      <path d="M39 61.2495 L44 49.2495 L39 52.2495 L34 49.2495 Z" clip-path="url(#clipPath2)" stroke="none"/>
      <path fill="none" d="M45 30 L45 52" clip-path="url(#clipPath2)"/>
      <path d="M45 60 L50 48 L45 51 L40 48 Z" clip-path="url(#clipPath2)" stroke="none"/>
      <path fill="none" d="M51 28.7505 L51 53.2495" clip-path="url(#clipPath2)"/>
      <path d="M51 61.2495 L56 49.2495 L51 52.2495 L46 49.2495 Z" clip-path="url(#clipPath2)" stroke="none"/>
      <path fill="none" d="M57 24.0098 L57 57.9902" clip-path="url(#clipPath2)"/>
      <path d="M57 65.9902 L62 53.9902 L57 56.9902 L52 53.9902 Z" clip-path="url(#clipPath2)" stroke="none"/>
      <path fill="none" d="M35 86.1931 L35 115.807" clip-path="url(#clipPath2)"/>
      <path d="M35 123.807 L40 111.807 L35 114.807 L30 111.807 Z" clip-path="url(#clipPath2)" stroke="none"/>
      <path fill="none" d="M45 90 L45 112" clip-path="url(#clipPath2)"/>
      <path d="M45 120 L50 108 L45 111 L40 108 Z" clip-path="url(#clipPath2)" stroke="none"/>
      <path fill="none" d="M55 86.1931 L55 115.807" clip-path="url(#clipPath2)"/>
      <path d="M55 123.807 L60 111.807 L55 114.807 L50 111.807 Z" clip-path="url(#clipPath2)" stroke="none"/>
    </g>
  </g>
</svg>
</g>
</svg>
