<?xml version="1.0" encoding="utf-8"?>
<svg height="231" width="302" xmlns="http://www.w3.org/2000/svg">
<g transform="rotate(90 0 0) translate(0 -302)">
<svg color-interpolation="auto" color-rendering="auto" fill="black" fill-opacity="1" font-family="'Dialog'" font-size="12px" font-style="normal" font-weight="normal" height="302" image-rendering="auto" shape-rendering="auto" stroke="black" stroke-dasharray="none" stroke-dashoffset="0" stroke-linecap="square" stroke-linejoin="miter" stroke-miterlimit="10" stroke-opacity="1" stroke-width="1" text-rendering="auto" width="231" xmlns="http://www.w3.org/2000/svg" xmlns:xlink="http://www.w3.org/1999/xlink">
<!--Generated by ySVG 2.6-->
<defs id="genericDefs"/>
<g>
<defs id="defs1">
<clipPath clipPathUnits="userSpaceOnUse" id="clipPath1">
<path d="M0 0 L231 0 L231 302 L0 302 L0 0 Z"/>
</clipPath>
<clipPath clipPathUnits="userSpaceOnUse" id="clipPath2">
<path d="M-38 -30 L193 -30 L193 272 L-38 272 L-38 -30 Z"/>
</clipPath>
<clipPath clipPathUnits="userSpaceOnUse" id="clipPath3">
<path d="M205.8779 -15.8672 L205.8779 215.1328 L-96.1221 215.1328 L-96.1221 -15.8672 L205.8779 -15.8672 Z"/>
</clipPath>
<clipPath clipPathUnits="userSpaceOnUse" id="clipPath4">
<path d="M221.9072 -30.8672 L221.9072 200.1328 L-80.0928 200.1328 L-80.0928 -30.8672 L221.9072 -30.8672 Z"/>
</clipPath>
<clipPath clipPathUnits="userSpaceOnUse" id="clipPath5">
<path d="M159.9814 -63.9336 L159.9814 167.0664 L-142.0186 167.0664 L-142.0186 -63.9336 L159.9814 -63.9336 Z"/>
</clipPath>
<clipPath clipPathUnits="userSpaceOnUse" id="clipPath6">
<path d="M156.7939 -73.9336 L156.7939 157.0664 L-145.2061 157.0664 L-145.2061 -73.9336 L156.7939 -73.9336 Z"/>
</clipPath>
<clipPath clipPathUnits="userSpaceOnUse" id="clipPath7">
<path d="M236.5879 -63.9336 L236.5879 167.0664 L-65.4121 167.0664 L-65.4121 -63.9336 L236.5879 -63.9336 Z"/>
</clipPath>
<clipPath clipPathUnits="userSpaceOnUse" id="clipPath8">
<path d="M236.5879 -73.9336 L236.5879 157.0664 L-65.4121 157.0664 L-65.4121 -73.9336 L236.5879 -73.9336 Z"/>
</clipPath>
<clipPath clipPathUnits="userSpaceOnUse" id="clipPath9">
<path d="M236.5879 -83.9336 L236.5879 147.0664 L-65.4121 147.0664 L-65.4121 -83.9336 L236.5879 -83.9336 Z"/>
</clipPath>
<clipPath clipPathUnits="userSpaceOnUse" id="clipPath10">
<path d="M125.6538 -118.3672 L125.6538 112.6328 L-176.3462 112.6328 L-176.3462 -118.3672 L125.6538 -118.3672 Z"/>
</clipPath>
<clipPath clipPathUnits="userSpaceOnUse" id="clipPath11">
<path d="M80.7939 -149.4336 L80.7939 81.5664 L-221.2061 81.5664 L-221.2061 -149.4336 L80.7939 -149.4336 Z"/>
</clipPath>
<clipPath clipPathUnits="userSpaceOnUse" id="clipPath12">
<path d="M80.7939 -155.4336 L80.7939 75.5664 L-221.2061 75.5664 L-221.2061 -155.4336 L80.7939 -155.4336 Z"/>
</clipPath>
<clipPath clipPathUnits="userSpaceOnUse" id="clipPath13">
<path d="M80.7939 -161.4336 L80.7939 69.5664 L-221.2061 69.5664 L-221.2061 -161.4336 L80.7939 -161.4336 Z"/>
</clipPath>
<clipPath clipPathUnits="userSpaceOnUse" id="clipPath14">
<path d="M80.7939 -167.4336 L80.7939 63.5664 L-221.2061 63.5664 L-221.2061 -167.4336 L80.7939 -167.4336 Z"/>
</clipPath>
<clipPath clipPathUnits="userSpaceOnUse" id="clipPath15">
<path d="M80.7939 -173.4336 L80.7939 57.5664 L-221.2061 57.5664 L-221.2061 -173.4336 L80.7939 -173.4336 Z"/>
</clipPath>
<clipPath clipPathUnits="userSpaceOnUse" id="clipPath16">
<path d="M161.0879 -122.6836 L161.0879 108.3164 L-140.9121 108.3164 L-140.9121 -122.6836 L161.0879 -122.6836 Z"/>
</clipPath>
</defs>
<g fill="white" shape-rendering="geometricPrecision" stroke="white" text-rendering="geometricPrecision" transform="translate(38,30)">
<rect clip-path="url(#clipPath2)" height="302" stroke="none" width="231" x="-38" y="-30"/>
</g>
<g fill="rgb(204,204,255)" shape-rendering="geometricPrecision" stroke="rgb(204,204,255)" text-rendering="geometricPrecision" transform="matrix(1,0,0,1,38,30)">
<rect clip-path="url(#clipPath2)" height="272" stroke="none" width="177.5" x="0" y="-15"/>
</g>
<g font-family="sans-serif" shape-rendering="geometricPrecision" stroke-linecap="butt" stroke-miterlimit="1.45" text-rendering="geometricPrecision" transform="matrix(-0,-1,1,-0,15.8672,205.8779)">
<text clip-path="url(#clipPath3)" stroke="none" x="2" xml:space="preserve" y="13.6016">ConcatTopModule</text>
</g>
<g shape-rendering="geometricPrecision" stroke-linecap="butt" stroke-miterlimit="1.45" text-rendering="geometricPrecision" transform="matrix(1,0,0,1,38,30)">
<rect clip-path="url(#clipPath2)" fill="none" height="272" width="177.5" x="0" y="-15"/>
</g>
<g fill="rgb(255,204,0)" shape-rendering="geometricPrecision" stroke="rgb(255,204,0)" text-rendering="geometricPrecision" transform="matrix(1,0,0,1,38,30)">
<circle clip-path="url(#clipPath2)" cx="45" cy="227" r="15" stroke="none"/>
</g>
<g shape-rendering="geometricPrecision" stroke-linecap="butt" stroke-miterlimit="1.45" text-rendering="geometricPrecision" transform="matrix(1,0,0,1,38,30)">
<circle clip-path="url(#clipPath2)" cx="45" cy="227" fill="none" r="15"/>
</g>
<g fill="rgb(255,204,0)" shape-rendering="geometricPrecision" stroke="rgb(255,204,0)" text-rendering="geometricPrecision" transform="matrix(1,0,0,1,38,30)">
<circle clip-path="url(#clipPath2)" cx="37.5" cy="75" r="15" stroke="none"/>
</g>
<g shape-rendering="geometricPrecision" stroke-linecap="butt" stroke-miterlimit="1.45" text-rendering="geometricPrecision" transform="matrix(1,0,0,1,38,30)">
<circle clip-path="url(#clipPath2)" cx="37.5" cy="75" fill="none" r="15"/>
</g>
<g fill="rgb(255,204,0)" shape-rendering="geometricPrecision" stroke="rgb(255,204,0)" text-rendering="geometricPrecision" transform="matrix(1,0,0,1,38,30)">
<circle clip-path="url(#clipPath2)" cx="132.5" cy="15" r="15" stroke="none"/>
</g>
<g shape-rendering="geometricPrecision" stroke-linecap="butt" stroke-miterlimit="1.45" text-rendering="geometricPrecision" transform="matrix(1,0,0,1,38,30)">
<circle clip-path="url(#clipPath2)" cx="132.5" cy="15" fill="none" r="15"/>
</g>
<g fill="rgb(204,204,255)" shape-rendering="geometricPrecision" stroke="rgb(204,204,255)" text-rendering="geometricPrecision" transform="matrix(1,0,0,1,38,30)">
<rect clip-path="url(#clipPath2)" height="60" stroke="none" width="60" x="15" y="137"/>
</g>
<g font-family="sans-serif" shape-rendering="geometricPrecision" stroke-linecap="butt" stroke-miterlimit="1.45" text-rendering="geometricPrecision" transform="matrix(-0,-1,1,-0,30.8672,221.9072)">
<text clip-path="url(#clipPath4)" stroke="none" x="2" xml:space="preserve" y="13.6016">concat2</text>
</g>
<g shape-rendering="geometricPrecision" stroke-linecap="butt" stroke-miterlimit="1.45" text-rendering="geometricPrecision" transform="matrix(1,0,0,1,38,30)">
<rect clip-path="url(#clipPath2)" fill="none" height="60" width="60" x="15" y="137"/>
</g>
<g fill="rgb(255,204,0)" shape-rendering="geometricPrecision" stroke="rgb(255,204,0)" text-rendering="geometricPrecision" transform="matrix(1,0,0,1,38,30)">
<circle clip-path="url(#clipPath2)" cx="45" cy="167" r="15" stroke="none"/>
</g>
<g shape-rendering="geometricPrecision" stroke-linecap="butt" stroke-miterlimit="1.45" text-rendering="geometricPrecision" transform="matrix(1,0,0,1,38,30)">
<circle clip-path="url(#clipPath2)" cx="45" cy="167" fill="none" r="15"/>
<path clip-path="url(#clipPath2)" d="M30 88.003 L30 105.5 L35 105.5 L35 147.7946" fill="none"/>
<path clip-path="url(#clipPath2)" d="M35 155.7946 L40 143.7946 L35 146.7946 L30 143.7946 Z" stroke="none"/>
</g>
<g font-family="sans-serif" shape-rendering="geometricPrecision" stroke-linecap="butt" stroke-miterlimit="1.45" text-rendering="geometricPrecision" transform="matrix(-0,-1,1,-0,63.9336,159.9814)">
<text clip-path="url(#clipPath5)" stroke="none" x="2" xml:space="preserve" y="13.6016">6</text>
</g>
<g shape-rendering="geometricPrecision" stroke-linecap="butt" stroke-miterlimit="1.45" text-rendering="geometricPrecision" transform="matrix(1,0,0,1,38,30)">
<path clip-path="url(#clipPath2)" d="M45 88 L45 144" fill="none"/>
<path clip-path="url(#clipPath2)" d="M45 152 L50 140 L45 143 L40 140 Z" stroke="none"/>
</g>
<g font-family="sans-serif" shape-rendering="geometricPrecision" stroke-linecap="butt" stroke-miterlimit="1.45" text-rendering="geometricPrecision" transform="matrix(-0,-1,1,-0,73.9336,156.7939)">
<text clip-path="url(#clipPath6)" stroke="none" x="2" xml:space="preserve" y="13.6016">7</text>
</g>
<g shape-rendering="geometricPrecision" stroke-linecap="butt" stroke-miterlimit="1.45" text-rendering="geometricPrecision" transform="matrix(1,0,0,1,38,30)">
<path clip-path="url(#clipPath2)" d="M35 178.1931 L35 207.807" fill="none"/>
<path clip-path="url(#clipPath2)" d="M35 215.807 L40 203.807 L35 206.807 L30 203.807 Z" stroke="none"/>
</g>
<g font-family="sans-serif" shape-rendering="geometricPrecision" stroke-linecap="butt" stroke-miterlimit="1.45" text-rendering="geometricPrecision" transform="matrix(-0,-1,1,-0,63.9336,236.5879)">
<text clip-path="url(#clipPath7)" stroke="none" x="2" xml:space="preserve" y="13.6016">28</text>
</g>
<g shape-rendering="geometricPrecision" stroke-linecap="butt" stroke-miterlimit="1.45" text-rendering="geometricPrecision" transform="matrix(1,0,0,1,38,30)">
<path clip-path="url(#clipPath2)" d="M45 182 L45 204" fill="none"/>
<path clip-path="url(#clipPath2)" d="M45 212 L50 200 L45 203 L40 200 Z" stroke="none"/>
</g>
<g font-family="sans-serif" shape-rendering="geometricPrecision" stroke-linecap="butt" stroke-miterlimit="1.45" text-rendering="geometricPrecision" transform="matrix(-0,-1,1,-0,73.9336,236.5879)">
<text clip-path="url(#clipPath8)" stroke="none" x="2" xml:space="preserve" y="13.6016">28</text>
</g>
<g shape-rendering="geometricPrecision" stroke-linecap="butt" stroke-miterlimit="1.45" text-rendering="geometricPrecision" transform="matrix(1,0,0,1,38,30)">
<path clip-path="url(#clipPath2)" d="M55 178.1931 L55 207.807" fill="none"/>
<path clip-path="url(#clipPath2)" d="M55 215.807 L60 203.807 L55 206.807 L50 203.807 Z" stroke="none"/>
</g>
<g font-family="sans-serif" shape-rendering="geometricPrecision" stroke-linecap="butt" stroke-miterlimit="1.45" text-rendering="geometricPrecision" transform="matrix(-0,-1,1,-0,83.9336,236.5879)">
<text clip-path="url(#clipPath9)" stroke="none" x="2" xml:space="preserve" y="13.6016">28</text>
</g>
<g fill="rgb(204,204,255)" shape-rendering="geometricPrecision" stroke="rgb(204,204,255)" text-rendering="geometricPrecision" transform="matrix(1,0,0,1,38,30)">
<rect clip-path="url(#clipPath2)" height="68.5069" stroke="none" width="60" x="102.5" y="36.4931"/>
</g>
<g font-family="sans-serif" shape-rendering="geometricPrecision" stroke-linecap="butt" stroke-miterlimit="1.45" text-rendering="geometricPrecision" transform="matrix(-0,-1,1,-0,118.3672,125.6538)">
<text clip-path="url(#clipPath10)" stroke="none" x="2" xml:space="preserve" y="13.6016">concat1</text>
</g>
<g shape-rendering="geometricPrecision" stroke-linecap="butt" stroke-miterlimit="1.45" text-rendering="geometricPrecision" transform="matrix(1,0,0,1,38,30)">
<rect clip-path="url(#clipPath2)" fill="none" height="68.5069" width="60" x="102.5" y="36.4931"/>
</g>
<g fill="rgb(255,204,0)" shape-rendering="geometricPrecision" stroke="rgb(255,204,0)" text-rendering="geometricPrecision" transform="matrix(1,0,0,1,38,30)">
<circle clip-path="url(#clipPath2)" cx="132.5" cy="75" r="15" stroke="none"/>
</g>
<g shape-rendering="geometricPrecision" stroke-linecap="butt" stroke-miterlimit="1.45" text-rendering="geometricPrecision" transform="matrix(1,0,0,1,38,30)">
<circle clip-path="url(#clipPath2)" cx="132.5" cy="75" fill="none" r="15"/>
<path clip-path="url(#clipPath2)" d="M120.5 24.0098 L120.5 57.9902" fill="none"/>
<path clip-path="url(#clipPath2)" d="M120.5 65.9902 L125.5 53.9902 L120.5 56.9902 L115.5 53.9902 Z" stroke="none"/>
</g>
<g font-family="sans-serif" shape-rendering="geometricPrecision" stroke-linecap="butt" stroke-miterlimit="1.45" text-rendering="geometricPrecision" transform="matrix(-0,-1,1,-0,149.4336,80.7939)">
<text clip-path="url(#clipPath11)" stroke="none" x="2" xml:space="preserve" y="13.6016">1</text>
</g>
<g shape-rendering="geometricPrecision" stroke-linecap="butt" stroke-miterlimit="1.45" text-rendering="geometricPrecision" transform="matrix(1,0,0,1,38,30)">
<path clip-path="url(#clipPath2)" d="M126.5 28.7505 L126.5 53.2495" fill="none"/>
<path clip-path="url(#clipPath2)" d="M126.5 61.2495 L131.5 49.2495 L126.5 52.2495 L121.5 49.2495 Z" stroke="none"/>
</g>
<g font-family="sans-serif" shape-rendering="geometricPrecision" stroke-linecap="butt" stroke-miterlimit="1.45" text-rendering="geometricPrecision" transform="matrix(-0,-1,1,-0,155.4336,80.7939)">
<text clip-path="url(#clipPath12)" stroke="none" x="2" xml:space="preserve" y="13.6016">2</text>
</g>
<g shape-rendering="geometricPrecision" stroke-linecap="butt" stroke-miterlimit="1.45" text-rendering="geometricPrecision" transform="matrix(1,0,0,1,38,30)">
<path clip-path="url(#clipPath2)" d="M132.5 30 L132.5 52" fill="none"/>
<path clip-path="url(#clipPath2)" d="M132.5 60 L137.5 48 L132.5 51 L127.5 48 Z" stroke="none"/>
</g>
<g font-family="sans-serif" shape-rendering="geometricPrecision" stroke-linecap="butt" stroke-miterlimit="1.45" text-rendering="geometricPrecision" transform="matrix(-0,-1,1,-0,161.4336,80.7939)">
<text clip-path="url(#clipPath13)" stroke="none" x="2" xml:space="preserve" y="13.6016">3</text>
</g>
<g shape-rendering="geometricPrecision" stroke-linecap="butt" stroke-miterlimit="1.45" text-rendering="geometricPrecision" transform="matrix(1,0,0,1,38,30)">
<path clip-path="url(#clipPath2)" d="M138.5 28.7505 L138.5 53.2495" fill="none"/>
<path clip-path="url(#clipPath2)" d="M138.5 61.2495 L143.5 49.2495 L138.5 52.2495 L133.5 49.2495 Z" stroke="none"/>
</g>
<g font-family="sans-serif" shape-rendering="geometricPrecision" stroke-linecap="butt" stroke-miterlimit="1.45" text-rendering="geometricPrecision" transform="matrix(-0,-1,1,-0,167.4336,80.7939)">
<text clip-path="url(#clipPath14)" stroke="none" x="2" xml:space="preserve" y="13.6016">4</text>
</g>
<g shape-rendering="geometricPrecision" stroke-linecap="butt" stroke-miterlimit="1.45" text-rendering="geometricPrecision" transform="matrix(1,0,0,1,38,30)">
<path clip-path="url(#clipPath2)" d="M144.5 24.0098 L144.5 57.9902" fill="none"/>
<path clip-path="url(#clipPath2)" d="M144.5 65.9902 L149.5 53.9902 L144.5 56.9902 L139.5 53.9902 Z" stroke="none"/>
</g>
<g font-family="sans-serif" shape-rendering="geometricPrecision" stroke-linecap="butt" stroke-miterlimit="1.45" text-rendering="geometricPrecision" transform="matrix(-0,-1,1,-0,173.4336,80.7939)">
<text clip-path="url(#clipPath15)" stroke="none" x="2" xml:space="preserve" y="13.6016">5</text>
</g>
<g shape-rendering="geometricPrecision" stroke-linecap="butt" stroke-miterlimit="1.45" text-rendering="geometricPrecision" transform="matrix(1,0,0,1,38,30)">
<path clip-path="url(#clipPath2)" d="M132.5 90 L132.5 121.5 L55 121.5 L55 147.8102" fill="none"/>
<path clip-path="url(#clipPath2)" d="M55 155.8102 L60 143.8102 L55 146.8102 L50 143.8102 Z" stroke="none"/>
</g>
<g font-family="sans-serif" shape-rendering="geometricPrecision" stroke-linecap="butt" stroke-miterlimit="1.45" text-rendering="geometricPrecision" transform="matrix(-0,-1,1,-0,122.6836,161.0879)">
<text clip-path="url(#clipPath16)" stroke="none" x="2" xml:space="preserve" y="13.6016">15</text>
</g>
</g>
</svg>
</g>
</svg>
