<!DOCTYPE svg PUBLIC "-//W3C//DTD SVG 1.1//EN" "http://www.w3.org/Graphics/SVG/1.1/DTD/svg11.dtd"><svg xmlns="http://www.w3.org/2000/svg" xmlns:xlink="http://www.w3.org/1999/xlink" xmlns:ev="http://www.w3.org/2001/xml-events" width="476.887" height="129.171" xml:space="preserve" color-interpolation-filters="sRGB" class="st12" version="1.1"> 
 <style type="text/css"><![CDATA[
	
		.st1 {fill:#000000;font-family:Arial,Helvetica,sans-serif;font-size:0.666664em}
		.st2 {stroke:#000000;stroke-linecap:butt;stroke-width:0.5px}
		.st3 {fill:none;stroke:none;stroke-linecap:butt;stroke-width:0.5px}
		.st4 {stroke:#000000;stroke-dasharray:0.25,1;stroke-linecap:butt;stroke-width:0.25px}
		.st5 {marker-end:url(#mrkr4-35);marker-start:url(#mrkr4-33);stroke:#000000;stroke-linecap:butt;stroke-width:0.5px}
		.st6 {fill:#000000;fill-opacity:1;stroke:#000000;stroke-opacity:1;stroke-width:0.21739130434783px}
		.st7 {fill:#ffffff;stroke:none;stroke-linecap:butt;stroke-width:7.2px}
		.st8 {baseline-shift:-32.4939%;font-size:0.649878em}
		.st9 {font-size:1em}
		.st10 {fill:#c0c0c0;stroke:none;stroke-linecap:butt;stroke-width:0.5px}
		.st11 {fill:none;stroke:#000000;stroke-linecap:butt;stroke-width:0.5px}
		.st12 {fill:none;fill-rule:evenodd;font-size:12px;overflow:visible;stroke-linecap:square;stroke-miterlimit:3}
	
	]]></style> 
 <defs id="Markers"> 
  <g id="lend4"> 
   <path d="M 2 1 L 0 0 L 2 -1 L 2 1 " style="stroke:none" /> 
  </g> 
  <marker id="mrkr4-33" class="st6" orient="auto" overflow="visible"> 
   <use xlink:href="#lend4" transform="scale(4.6) " /> 
  </marker> 
  <marker id="mrkr4-35" class="st6" orient="auto" overflow="visible"> 
   <use xlink:href="#lend4" transform="scale(-4.6,-4.6) " /> 
  </marker> 
 </defs> 
 <g> 
  <title>Page-1</title> 
  <g id="shape2-1" transform="translate(22.6772,-59.7776)"> 
   <title>Sheet.2</title> 
   <desc>
    smc_cs_n_0[3:0]
   </desc> 
   <text x="1.87" y="93.61" class="st1">
    smc_cs_n_0[3:0]
   </text> 
  </g> 
  <g id="shape3-3" transform="translate(36.8504,-37.1004)"> 
   <title>Sheet.3</title> 
   <desc>
    smc_we_n_0
   </desc> 
   <text x="1.06" y="93.61" class="st1">
    smc_we_n_0
   </text> 
  </g> 
  <g id="shape4-5" transform="translate(19.8425,-20.0925)"> 
   <title>Sheet.4</title> 
   <desc>
    smc_add_0[31:0]
   </desc> 
   <text x="3.83" y="93.61" class="st1">
    smc_add_0[31:0]
   </text> 
  </g> 
  <g id="shape5-7" transform="translate(-1.59872E-014,-3.08465)"> 
   <title>Sheet.5</title> 
   <desc>
    smc_data_out_0[31:0]
   </desc> 
   <text x="5.73" y="93.61" class="st1">
    smc_data_out_0[31:0]
   </text> 
  </g> 
  <g id="shape8-9" transform="translate(110.551,-59.7776)"> 
   <title>Sheet.8</title> 
   <path d="M0 96.88 L184.25 96.88" class="st2" /> 
  </g> 
  <g id="shape9-12" transform="translate(39.685,-82.4547)"> 
   <title>Sheet.9</title> 
   <desc>
    smc_mclk0
   </desc> 
   <rect x="0" y="85.5394" width="45.3543" height="11.3386" class="st3" /> 
   <text x="4.35" y="93.61" class="st1">
    smc_mclk0
   </text> 
  </g> 
  <g id="shape11-15" transform="translate(148.819,-37.1004)"> 
   <title>Sheet.11</title> 
   <path d="M0 96.88 L92.13 96.88" class="st2" /> 
  </g> 
  <g id="shape19-18" transform="translate(227.272,0.25) rotate(90)"> 
   <title>Time division.27</title> 
   <path d="M0 96.88 L96.38 96.88" class="st4" /> 
  </g> 
  <g id="shape30-21" transform="translate(85.0394,-82.4547)"> 
   <title>Clock 1</title> 
   <path d="M0 91.21 L0 85.54 L22.68 85.54 L22.68 96.88 L45.35 96.88 L45.35 91.21" class="st2" /> 
  </g> 
  <g id="shape36-24" transform="translate(260.24,8.40294) rotate(-89.7448)"> 
   <title>Sheet.36</title> 
   <path d="M0 96.88 L5.79 96.88" class="st2" /> 
  </g> 
  <g id="shape37-27" transform="translate(110.551,-73.9508)"> 
   <title>Signal &amp; Text.89</title> 
   <desc>
    tWC=4
   </desc> 
   <path d="M4.24 96.88 L4.6 96.88 L179.65 96.88" class="st5" /> 
   <rect x="81.7473" y="92.078" width="20.0053" height="10.0769" class="st7" /> 
   <text x="82.12" y="99.28" class="st1">
    t
    <tspan dy="-2.296" class="st8">
     WC
    </tspan>
    <tspan dy="1.487994048" class="st9">
     =
    </tspan>4
   </text> 
  </g> 
  <g id="shape38-40" transform="translate(148.837,-51.4508)"> 
   <title>Signal &amp; Text.3</title> 
   <desc>
    tWP=2
   </desc> 
   <path d="M4.24 96.88 L4.6 96.88 L87.7 96.88" class="st5" /> 
   <rect x="35.916" y="92.078" width="19.7183" height="10.0769" class="st7" /> 
   <text x="36.29" y="99.28" class="st1">
    t
    <tspan dy="-2.296" class="st8">
     WP
    </tspan>
    <tspan dy="1.487994048" class="st9">
     =
    </tspan>2
   </text> 
  </g> 
  <g id="group1-51" transform="translate(85.0394,-20.0925)"> 
   <title>Undef bus end 1 left</title> 
   <g id="shape6-52"> 
    <title>Sheet.6</title> 
    <path d="M0 85.54 L24.09 85.54 L25.51 91.21 L24.09 96.88 L0 96.88 L0 85.54 Z" class="st10" /> 
   </g> 
   <g id="shape23-54"> 
    <title>Sheet.23</title> 
    <path d="M0 85.54 L24.09 85.54 L25.51 91.21 L24.09 96.88 L0 96.88" class="st2" /> 
   </g> 
  </g> 
  <g id="group14-57" transform="translate(85.0394,-3.08465)"> 
   <title>Undef bus end 1 left.14</title> 
   <g id="shape17-58"> 
    <title>Sheet.17</title> 
    <path d="M0 85.54 L24.09 85.54 L25.51 91.21 L24.09 96.88 L0 96.88 L0 85.54 Z" class="st10" /> 
   </g> 
   <g id="shape24-60"> 
    <title>Sheet.24</title> 
    <path d="M0 85.54 L24.09 85.54 L25.51 91.21 L24.09 96.88 L0 96.88" class="st2" /> 
   </g> 
  </g> 
  <g id="group25-63" transform="translate(357.165,-20.0925) scale(-1,1)"> 
   <title>Undef bus end 1 right</title> 
   <g id="shape28-64"> 
    <title>Sheet.28</title> 
    <path d="M0 85.54 L60.94 85.54 L62.36 91.21 L60.94 96.88 L0 96.88 L0 85.54 Z" class="st10" /> 
   </g> 
   <g id="shape29-66"> 
    <title>Sheet.29</title> 
    <path d="M0 85.54 L60.94 85.54 L62.36 91.21 L60.94 96.88 L0 96.88" class="st2" /> 
   </g> 
  </g> 
  <g id="shape31-69" transform="translate(130.394,-82.4547)"> 
   <title>Clock 1.31</title> 
   <path d="M0 91.21 L0 85.54 L22.68 85.54 L22.68 96.88 L45.35 96.88 L45.35 91.21" class="st2" /> 
  </g> 
  <g id="shape32-72" transform="translate(175.748,-82.4547)"> 
   <title>Clock 1.32</title> 
   <path d="M0 91.21 L0 85.54 L22.68 85.54 L22.68 96.88 L45.35 96.88 L45.35 91.21" class="st2" /> 
  </g> 
  <g id="shape33-75" transform="translate(221.102,-82.4547)"> 
   <title>Clock 1.33</title> 
   <path d="M0 91.21 L0 85.54 L22.68 85.54 L22.68 96.88 L45.35 96.88 L45.35 91.21" class="st2" /> 
  </g> 
  <g id="shape34-78" transform="translate(266.457,-82.4547)"> 
   <title>Clock 1.34</title> 
   <path d="M0 91.21 L0 85.54 L22.68 85.54 L22.68 96.88 L45.35 96.88 L45.35 91.21" class="st2" /> 
  </g> 
  <g id="shape35-81" transform="translate(311.763,-82.3742)"> 
   <title>Clock 1.35</title> 
   <path d="M0 91.21 L0 85.54 L22.68 85.54 L22.68 96.88 L45.35 96.88 L45.35 91.21" class="st2" /> 
  </g> 
  <g id="shape40-84" transform="translate(110.551,122.64) rotate(180)"> 
   <title>0 to 1 - No Glitch</title> 
   <path d="M0 85.54 L2.83 96.88 L25.51 96.88" class="st2" /> 
  </g> 
  <g id="shape7-87" transform="translate(294.803,122.64) scale(1,-1)"> 
   <title>0 to 1 - No Glitch.7</title> 
   <path d="M0 85.54 L2.83 96.88 L62.36 96.88" class="st2" /> 
  </g> 
  <g id="shape12-90" transform="translate(149.102,145.317) rotate(180)"> 
   <title>0 to 1 - No Glitch.12</title> 
   <path d="M0 85.54 L2.83 96.88 L64.06 96.88" class="st2" /> 
  </g> 
  <g id="shape10-93" transform="translate(240.945,145.317) scale(1,-1)"> 
   <title>0 to 1 - No Glitch.10</title> 
   <path d="M0 85.54 L2.83 96.88 L116.22 96.88" class="st2" /> 
  </g> 
  <g id="shape13-96" transform="translate(110.551,-20.0925)"> 
   <title>Bus-Text.13</title> 
   <desc>
    A
   </desc> 
   <path d="M182.83 85.54 L1.42 85.54 L0 91.21 L1.42 96.88 L182.83 96.88 L184.25 91.21 L182.83 85.54 Z" class="st11" /> 
   <text x="89.46" y="93.61" class="st1">
    A
   </text> 
  </g> 
  <g id="shape15-99" transform="translate(110.551,-3.08465)"> 
   <title>Bus-Text.15</title> 
   <desc>
    D
   </desc> 
   <path d="M182.83 85.54 L1.42 85.54 L0 91.21 L1.42 96.88 L182.83 96.88 L184.25 91.21 L182.83 85.54 Z" class="st11" /> 
   <text x="89.24" y="93.61" class="st1">
    D
   </text> 
  </g> 
  <g id="group16-102" transform="translate(357.165,-3.08465) scale(-1,1)"> 
   <title>Undef bus end 1 right.16</title> 
   <g id="shape18-103"> 
    <title>Sheet.18</title> 
    <path d="M0 85.54 L60.94 85.54 L62.36 91.21 L60.94 96.88 L0 96.88 L0 85.54 Z" class="st10" /> 
   </g> 
   <g id="shape27-105"> 
    <title>Sheet.27</title> 
    <path d="M0 85.54 L60.94 85.54 L62.36 91.21 L60.94 96.88 L0 96.88" class="st2" /> 
   </g> 
  </g> 
  <g id="shape39-108" transform="translate(272.626,0.25) rotate(90)"> 
   <title>Time division.39</title> 
   <path d="M0 96.88 L96.38 96.88" class="st4" /> 
  </g> 
  <g id="shape20-111" transform="translate(317.98,0.25) rotate(90)"> 
   <title>Time division.20</title> 
   <path d="M0 96.88 L96.38 96.88" class="st4" /> 
  </g> 
  <g id="shape21-114" transform="translate(363.335,0.25) rotate(90)"> 
   <title>Time division.21</title> 
   <path d="M0 96.88 L96.38 96.88" class="st4" /> 
  </g> 
  <g id="shape22-117" transform="translate(408.689,0.25) rotate(90)"> 
   <title>Time division.22</title> 
   <path d="M0 96.88 L96.38 96.88" class="st4" /> 
  </g> 
 </g> 
</svg>